<?xml version="1.0" encoding="utf-8"?>
<!-- Generator: Adobe Illustrator 23.0.5, SVG Export Plug-In . SVG Version: 6.00 Build 0)  -->
<svg version="1.1" id="Layer_1" xmlns="http://www.w3.org/2000/svg" xmlns:xlink="http://www.w3.org/1999/xlink" x="0px" y="0px"
	 viewBox="0 0 1417.32 595.28" style="enable-background:new 0 0 1417.32 595.28;" xml:space="preserve">
<style type="text/css">
	.st0{fill:#697D68;}
	.st1{fill:#BFD6BE;}
	.st2{fill:none;stroke:#868786;stroke-miterlimit:10;}
</style>
<polygon class="st0" points="287.72,393.14 200.34,247.51 375.1,247.51 "/>
<g>
	<polygon class="st1" points="388.64,250.94 347.04,319.11 431.32,319.11 	"/>
	<polygon class="st1" points="439.61,331.29 338.57,332.07 302.25,392.93 476.12,392.93 	"/>
</g>
<rect x="198.36" y="161.47" class="st2" width="176.68" height="75.04"/>
<polygon class="st2" points="491.87,315.72 404.93,170.81 404.93,245.43 491.87,390.08 "/>
<g>
	<g>
		<path class="st0" d="M547.99,251.15l42.07,102.09l-16.44-3.27l38.16-98.82h33.66L579.7,399.47l-65.75-148.32H547.99z"/>
		<path class="st0" d="M652.1,278.89c0-3.98,1.6-7.25,4.79-9.82c3.2-2.57,6.62-3.85,10.27-3.85c3.65,0,7.01,1.29,10.08,3.85
			c3.06,2.57,4.6,5.84,4.6,9.82c0,3.98-1.54,7.22-4.6,9.73c-3.07,2.5-6.43,3.76-10.08,3.76c-3.65,0-7.08-1.25-10.27-3.76
			C653.7,286.12,652.1,282.87,652.1,278.89z M652.69,308.75h27.4v84.18h-27.4V308.75z"/>
		<path class="st0" d="M722.94,394.66c-7.04,0-13.6-1.22-19.67-3.66c-6.07-2.44-11.19-5.84-15.36-10.21l11.35-14.83
			c4.17,3.73,8.05,6.39,11.64,7.99c3.59,1.61,6.82,2.41,9.69,2.41c3.39,0,6.2-0.51,8.42-1.54c2.22-1.03,3.33-2.7,3.33-5.01
			c0-2.18-0.88-3.92-2.64-5.2c-1.76-1.28-4.01-2.34-6.75-3.18c-2.74-0.83-5.67-1.7-8.81-2.6c-7.83-2.44-13.47-6-16.93-10.69
			c-3.46-4.69-5.19-9.79-5.19-15.31c0-4.24,1.14-8.51,3.42-12.81c2.28-4.3,5.93-7.9,10.96-10.79c5.02-2.89,11.51-4.33,19.47-4.33
			c7.17,0,13.24,0.71,18.2,2.12c4.96,1.42,9.65,3.73,14.09,6.93l-10.37,15.79c-2.48-1.93-5.25-3.56-8.32-4.91
			c-3.07-1.35-5.9-2.08-8.51-2.21c-3.52-0.13-6.26,0.48-8.22,1.83s-2.94,2.92-2.94,4.72c-0.13,2.44,0.81,4.37,2.84,5.78
			c2.02,1.41,4.6,2.5,7.73,3.27s6.2,1.67,9.2,2.7c6.13,2.06,11.02,4.98,14.68,8.76c3.65,3.79,5.48,8.83,5.48,15.12
			c0,5.14-1.34,9.99-4.01,14.54c-2.68,4.56-6.72,8.25-12.13,11.08C738.17,393.24,731.29,394.66,722.94,394.66z"/>
		<path class="st0" d="M800.24,396.97c-7.7,0-14.16-2.34-19.37-7.03c-5.22-4.69-7.96-10.75-8.22-18.2v-62.99h27.4v52.97
			c0.26,3.73,1.24,6.71,2.94,8.96c1.69,2.25,4.57,3.37,8.61,3.37c4.04,0,7.54-1.35,10.47-4.04c2.94-2.7,5.22-6.39,6.85-11.08
			c1.63-4.69,2.45-9.98,2.45-15.89v-34.29h27.4v84.18H833.9l-2.15-15.41l0.39,1.73c-2.87,5.27-6.98,9.54-12.33,12.81
			C814.46,395.33,807.94,396.97,800.24,396.97z"/>
		<path class="st1" d="M864.71,392.92l50.93-115.51h1.23l50.93,115.51h-25.77l-32.52-81.24l16.11-10.87l-38.97,92.11H864.71z
			 M899.53,352.76h33.9l7.82,18.42h-48.63L899.53,352.76z"/>
		<path class="st1" d="M1000.56,308.75l2.54,23.12l-0.59-3.47c2.48-5.01,5.87-9.28,10.18-12.81c4.31-3.53,8.58-6.26,12.82-8.19
			c4.24-1.93,7.47-2.89,9.69-2.89l-1.37,26.97c-6.39-0.77-11.87,0.26-16.44,3.08c-4.57,2.83-8.09,6.55-10.57,11.17
			c-2.48,4.62-3.72,9.38-3.72,14.25v32.94h-27.2v-84.18H1000.56z"/>
		<path class="st1" d="M1054.18,271.77h27.4v36.6h20.74v21h-20.74v63.57h-27.4v-63.57h-13.31v-21h13.31V271.77z"/>
	</g>
</g>
</svg>
