<?xml version="1.0" encoding="utf-8"?>
<!-- Generator: Adobe Illustrator 23.0.5, SVG Export Plug-In . SVG Version: 6.00 Build 0)  -->
<svg version="1.1" id="Layer_1" xmlns="http://www.w3.org/2000/svg" xmlns:xlink="http://www.w3.org/1999/xlink" x="0px" y="0px"
	 viewBox="0 0 933.06 251.61" style="enable-background:new 0 0 933.06 251.61;" xml:space="preserve">
<style type="text/css">
	.st0{fill:#697D68;}
	.st1{fill:#BFD6BE;}
	.st2{fill:none;stroke:#616160;stroke-miterlimit:10;}
</style>
<polygon class="st0" points="105.18,240.66 17.79,95.03 192.56,95.03 "/>
<g>
	<polygon class="st1" points="206.1,98.46 164.5,166.63 248.78,166.63 	"/>
	<polygon class="st1" points="257.06,178.81 156.03,179.59 119.7,240.45 293.58,240.45 	"/>
</g>
<rect x="15.81" y="8.99" class="st2" width="176.68" height="75.04"/>
<polygon class="st2" points="309.32,163.24 222.39,18.33 222.39,92.95 309.32,237.6 "/>
<g>
	<g>
		<path class="st0" d="M353.67,31.4l42.07,102.09l-16.44-3.27l38.16-98.82h33.66l-65.75,148.32L319.62,31.4H353.67z"/>
		<path class="st0" d="M457.78,59.14c0-3.98,1.6-7.25,4.79-9.82c3.2-2.57,6.62-3.85,10.27-3.85c3.65,0,7.01,1.29,10.08,3.85
			c3.06,2.57,4.6,5.84,4.6,9.82c0,3.98-1.54,7.22-4.6,9.73c-3.07,2.5-6.43,3.76-10.08,3.76c-3.65,0-7.08-1.25-10.27-3.76
			C459.37,66.36,457.78,63.12,457.78,59.14z M458.37,88.99h27.4v84.18h-27.4V88.99z"/>
		<path class="st0" d="M528.62,174.9c-7.05,0-13.6-1.22-19.67-3.66c-6.07-2.44-11.19-5.84-15.36-10.21l11.35-14.83
			c4.17,3.73,8.05,6.39,11.64,7.99c3.59,1.61,6.81,2.41,9.69,2.41c3.39,0,6.2-0.51,8.42-1.54c2.22-1.03,3.33-2.7,3.33-5.01
			c0-2.18-0.88-3.92-2.64-5.2c-1.76-1.28-4.01-2.34-6.75-3.18c-2.74-0.83-5.68-1.7-8.81-2.6c-7.83-2.44-13.47-6-16.93-10.69
			c-3.46-4.69-5.19-9.79-5.19-15.31c0-4.24,1.14-8.51,3.42-12.81c2.28-4.3,5.93-7.9,10.96-10.79c5.02-2.89,11.51-4.33,19.47-4.33
			c7.17,0,13.24,0.71,18.2,2.12c4.96,1.42,9.65,3.73,14.09,6.93l-10.37,15.79c-2.48-1.93-5.25-3.56-8.32-4.91
			c-3.07-1.35-5.9-2.08-8.51-2.21c-3.52-0.13-6.26,0.48-8.22,1.83s-2.94,2.92-2.94,4.72c-0.13,2.44,0.81,4.37,2.84,5.78
			c2.02,1.41,4.6,2.5,7.73,3.27s6.2,1.67,9.2,2.7c6.13,2.06,11.02,4.98,14.68,8.76c3.65,3.79,5.48,8.83,5.48,15.12
			c0,5.14-1.34,9.99-4.01,14.54c-2.68,4.56-6.72,8.25-12.13,11.08C543.85,173.49,536.97,174.9,528.62,174.9z"/>
		<path class="st0" d="M605.92,177.21c-7.7,0-14.16-2.34-19.38-7.03c-5.22-4.69-7.96-10.75-8.22-18.2V88.99h27.4v52.97
			c0.26,3.73,1.24,6.71,2.94,8.96c1.7,2.25,4.57,3.37,8.61,3.37c4.04,0,7.54-1.35,10.47-4.04c2.94-2.7,5.22-6.39,6.85-11.08
			c1.63-4.69,2.45-9.98,2.45-15.89V88.99h27.4v84.18h-24.85l-2.15-15.41l0.39,1.73c-2.87,5.27-6.98,9.54-12.33,12.81
			C620.14,175.58,613.61,177.21,605.92,177.21z"/>
		<path class="st1" d="M670.38,173.17l50.93-115.52h1.23l50.93,115.52H747.7l-32.52-81.24l16.11-10.87l-38.96,92.11H670.38z
			 M705.21,133h33.9l7.82,18.42H698.3L705.21,133z"/>
		<path class="st1" d="M806.24,88.99l2.54,23.12l-0.59-3.47c2.48-5.01,5.87-9.28,10.18-12.81c4.3-3.53,8.58-6.26,12.82-8.19
			c4.24-1.93,7.47-2.89,9.69-2.89l-1.37,26.97c-6.39-0.77-11.87,0.26-16.44,3.08c-4.57,2.83-8.09,6.55-10.57,11.17
			c-2.48,4.62-3.72,9.37-3.72,14.25v32.94h-27.2V88.99H806.24z"/>
		<path class="st1" d="M859.85,52.01h27.4v36.6H908v21h-20.74v63.57h-27.4V109.6h-13.31v-21h13.31V52.01z"/>
	</g>
</g>
</svg>
